<svg width="106" height="60" viewBox="0 0 106 60" fill="none" xmlns="http://www.w3.org/2000/svg">
<path fill-rule="evenodd" clip-rule="evenodd" d="M50.1136 6.93452H49.977C49.7671 6.92181 49.5571 6.91672 49.3471 6.91163H49.3471H49.3269H48.8918C48.4946 6.91163 48.0898 6.92181 47.6876 6.94215C47.6573 6.93994 47.6269 6.93994 47.5966 6.94215C43.9522 7.14863 40.3817 8.05951 37.0805 9.62492L36.6479 9.83344V31.9746L37.6598 31.6313C38.5477 31.3261 39.4938 31.0515 40.4728 30.7972C43.1193 30.1178 45.8367 29.7567 48.568 29.7216V32.6306C48.2062 32.6332 47.8546 32.6434 47.503 32.6612H47.4195C45.3175 32.7765 43.2317 33.0967 41.1913 33.6173C38.6072 34.2643 36.1143 35.2357 33.7716 36.5086V8.11189C36.2047 6.69275 38.8253 5.62687 41.5556 4.94596C43.9527 4.32705 46.4169 4.00931 48.8918 4H49.3193C49.8303 4.01271 50.3287 4.0356 50.7967 4.0712C52.0297 4.15778 53.2528 4.35263 54.4521 4.65353V7.51685C53.2874 7.24551 52.1032 7.06695 50.9105 6.98284C50.8863 6.98079 50.8621 6.97872 50.8379 6.97666C50.5911 6.95561 50.344 6.93452 50.1136 6.93452ZM55.1528 9.86138C55.7877 9.9097 56.4455 9.93259 57.1108 9.93259C59.7125 9.92307 62.3031 9.59083 64.8239 8.94339C67.4068 8.29396 69.8986 7.32178 72.2411 6.04956V33.9402C69.8067 35.3585 67.1853 36.4243 64.4546 37.1061C62.0571 37.7227 59.5931 38.0395 57.1184 38.0496C55.2433 38.0647 53.3737 37.8443 51.553 37.3935V9.32229C51.983 9.42146 52.4257 9.51301 52.876 9.58929C53.6147 9.7139 54.3939 9.80544 55.1528 9.86138ZM69.3471 10.0775L68.3352 10.4183C67.4042 10.7311 66.4657 11.0108 65.5221 11.26C62.7749 11.966 59.9514 12.3281 57.1158 12.3382C56.4556 12.3382 55.8485 12.3204 55.2616 12.2822L54.4546 12.2288V32.3178V35.0057L55.1477 35.0667C55.7903 35.1227 56.4531 35.1506 57.1209 35.1506C59.3544 35.1412 61.5781 34.8533 63.7412 34.2937C65.5223 33.8469 67.2552 33.2243 68.9145 32.4348L69.3471 32.2263V10.0775Z" fill="#AFB1B8"/>
<path d="M35.7371 46.2124C35.5917 46.0615 35.4163 45.943 35.2224 45.8646C35.0284 45.7862 34.8203 45.7496 34.6114 45.7572C34.3888 45.7542 34.1678 45.7957 33.9613 45.8793C33.7719 45.9547 33.5998 46.068 33.4553 46.2124C33.3125 46.3572 33.2013 46.5304 33.129 46.721C33.0497 46.9207 33.0101 47.1341 33.0126 47.3491V51.1431C33.0036 51.4104 33.0546 51.6764 33.1619 51.9212C33.2514 52.1156 33.3807 52.2889 33.5413 52.4298C33.693 52.5575 33.871 52.6495 34.0625 52.6994C34.2469 52.7512 34.4376 52.7777 34.6291 52.7782C34.8404 52.7803 35.0495 52.7351 35.2413 52.646C35.4309 52.563 35.6028 52.4438 35.7473 52.295C35.8881 52.1476 36.0005 51.9752 36.0786 51.7864C36.1597 51.5951 36.201 51.3892 36.2001 51.1812V50.7566H35.2084V51.0948C35.2114 51.2103 35.1916 51.3252 35.1502 51.433C35.1179 51.5137 35.0688 51.5866 35.006 51.6466C34.9446 51.6962 34.8742 51.7334 34.7986 51.7559C34.7316 51.7782 34.6617 51.7902 34.5912 51.7915C34.5026 51.8018 34.413 51.7885 34.3312 51.7527C34.2495 51.717 34.1786 51.6602 34.1257 51.5881C34.0322 51.4356 33.9864 51.2585 33.9942 51.0795V47.5423C33.988 47.3462 34.0297 47.1515 34.1156 46.9753C34.1671 46.8952 34.2399 46.8313 34.3258 46.7908C34.4117 46.7503 34.5071 46.7349 34.6013 46.7464C34.6868 46.7434 34.7717 46.7612 34.8488 46.7984C34.9259 46.8356 34.9929 46.8911 35.044 46.96C35.155 47.1057 35.213 47.2852 35.2084 47.4686V47.7966H36.19V47.4101C36.1919 47.1831 36.1507 46.9578 36.0685 46.7464C35.9953 46.5476 35.8825 46.3659 35.7371 46.2124V46.2124Z" fill="#AFB1B8"/>
<path d="M41.6289 46.1691C41.3127 45.9021 40.9136 45.7546 40.5007 45.7521C40.2987 45.7529 40.0984 45.7891 39.9087 45.8589C39.7161 45.9279 39.5384 46.0332 39.3851 46.1691C39.2208 46.3168 39.0897 46.498 39.0005 46.7006C38.9006 46.9323 38.8515 47.183 38.8563 47.4355V51.0744C38.8495 51.3304 38.8987 51.5847 39.0005 51.8195C39.0903 52.0151 39.2215 52.1887 39.3851 52.328C39.5367 52.4688 39.7147 52.5777 39.9087 52.6485C40.0984 52.7183 40.2987 52.7544 40.5007 52.7553C40.7027 52.7549 40.9031 52.7187 41.0926 52.6485C41.29 52.5767 41.4719 52.468 41.6289 52.328C41.7871 52.1861 41.9145 52.013 42.0033 51.8195C42.1051 51.5847 42.1544 51.3304 42.1475 51.0744V47.4355C42.1524 47.183 42.1032 46.9323 42.0033 46.7006C41.9151 46.5001 41.7878 46.3194 41.6289 46.1691V46.1691ZM41.166 51.0744C41.1743 51.1714 41.1609 51.269 41.1268 51.3601C41.0926 51.4512 41.0386 51.5334 40.9687 51.6008C40.8377 51.7106 40.6725 51.7708 40.5019 51.7708C40.3313 51.7708 40.1662 51.7106 40.0352 51.6008C39.9652 51.5334 39.9112 51.4512 39.8771 51.3601C39.8429 51.269 39.8295 51.1714 39.8379 51.0744V47.4355C39.8295 47.3385 39.8429 47.2409 39.8771 47.1498C39.9112 47.0587 39.9652 46.9764 40.0352 46.9091C40.1662 46.7993 40.3313 46.7391 40.5019 46.7391C40.6725 46.7391 40.8377 46.7993 40.9687 46.9091C41.0386 46.9764 41.0926 47.0587 41.1268 47.1498C41.1609 47.2409 41.1743 47.3385 41.166 47.4355V51.0744Z" fill="#AFB1B8"/>
<path d="M49.3673 52.6994V45.8107H48.4136L47.1614 49.4572H47.1437L45.8813 45.8107H44.9377V52.6994H45.9218V48.5087H45.9395L46.9033 51.4712H47.3941L48.3655 48.5087H48.3832V52.6994H49.3673Z" fill="#AFB1B8"/>
<path d="M54.9581 46.2937C54.8065 46.1237 54.6153 45.9943 54.4015 45.9173C54.1712 45.8424 53.9302 45.8063 53.6881 45.8105H52.226V52.6993H53.2075V50.0089H53.7134C54.0197 50.0228 54.3244 49.958 54.5988 49.8207C54.822 49.6968 55.0081 49.515 55.1377 49.2943C55.2512 49.1111 55.3277 48.9071 55.3628 48.6942C55.4014 48.435 55.4192 48.173 55.4159 47.911C55.4255 47.5802 55.3932 47.2495 55.3198 46.9269C55.2543 46.6885 55.1299 46.4706 54.9581 46.2937V46.2937ZM54.4521 48.3941C54.4479 48.5188 54.4168 48.6412 54.361 48.7527C54.3049 48.8586 54.2162 48.9434 54.1081 48.9942C53.9627 49.0593 53.8041 49.0889 53.6451 49.0807H53.1974V46.7387H53.7033C53.8557 46.7312 54.0075 46.7609 54.146 46.8251C54.2475 46.8834 54.3281 46.9724 54.3762 47.0794C54.4299 47.2004 54.4591 47.331 54.4622 47.4634C54.4622 47.6084 54.4622 47.7609 54.4622 47.9211C54.4622 48.0813 54.4723 48.2466 54.4622 48.3941H54.4521Z" fill="#AFB1B8"/>
<path d="M59.6077 45.8107H58.8032L57.2854 52.6994H58.2669L58.5553 51.2194H59.8935L60.1819 52.6994H61.1635L59.6077 45.8107ZM58.702 50.2811L59.1852 47.784H59.2029L59.6836 50.2811H58.702Z" fill="#AFB1B8"/>
<path d="M65.9497 49.9607H65.932L64.4496 45.8107H63.506V52.6994H64.4875V48.557H64.5078L66.0079 52.6994H66.9312V45.8107H65.9497V49.9607Z" fill="#AFB1B8"/>
<path d="M71.9476 45.8107L71.1583 48.5494H71.1381L70.3488 45.8107H69.3091L70.6574 49.7878V52.6994H71.639V49.7878L72.9873 45.8107H71.9476Z" fill="#AFB1B8"/>
<path d="M33 54.6445H33.4731V55.9719H33.7943V54.6445H34.2649V54.3724H33V54.6445Z" fill="#AFB1B8"/>
<path d="M36.9767 54.3724L36.3569 55.9719H36.6984L36.83 55.6083H37.4675L37.6041 55.9719H37.9532L37.3182 54.3724H36.9767ZM36.9261 55.3387L37.1437 54.7462L37.3612 55.3387H36.9261Z" fill="#AFB1B8"/>
<path d="M40.9079 55.3821H41.2773V55.5881C41.1694 55.6746 41.0358 55.722 40.8978 55.7229C40.8333 55.7265 40.7689 55.7145 40.7099 55.688C40.6509 55.6614 40.5991 55.6211 40.5588 55.5703C40.474 55.4485 40.4322 55.3017 40.4399 55.1533C40.4399 54.7973 40.5942 54.6193 40.9003 54.6193C40.9809 54.6112 41.0617 54.6325 41.128 54.6791C41.1944 54.7257 41.2419 54.7947 41.2621 54.8735L41.5783 54.8125C41.51 54.4997 41.2849 54.3421 40.9003 54.3421C40.6947 54.3366 40.4947 54.4103 40.3413 54.5481C40.2607 54.6276 40.1983 54.7239 40.1586 54.8302C40.1188 54.9365 40.1026 55.0502 40.1111 55.1634C40.1017 55.3823 40.1749 55.5966 40.316 55.7636C40.3943 55.8444 40.4892 55.9071 40.594 55.9475C40.6988 55.9879 40.8111 56.0049 40.9231 55.9975C41.1734 56.0045 41.4165 55.9133 41.6011 55.7432V55.1126H40.9079V55.3821Z" fill="#AFB1B8"/>
<path d="M44.9226 54.3724H44.5988V55.9719H45.7194V55.6998H44.9226V54.3724Z" fill="#AFB1B8"/>
<path d="M48.3175 54.3724H47.9937V55.9719H48.3175V54.3724Z" fill="#AFB1B8"/>
<path d="M51.6365 55.4405L50.9813 54.3724H50.6676V55.9719H50.9686V54.9268L51.6112 55.9719H51.9325V54.3724H51.6365V55.4405Z" fill="#AFB1B8"/>
<path d="M54.6368 55.2675H55.4337V54.9954H54.6368V54.6445H55.4944V54.3724H54.313V55.9719H55.5273V55.6998H54.6368V55.2675Z" fill="#AFB1B8"/>
<path d="M61.9122 55.0031H61.2823V54.3724H60.9611V55.9719H61.2823V55.2726H61.9122V55.9719H62.2335V54.3724H61.9122V55.0031Z" fill="#AFB1B8"/>
<path d="M64.9302 55.2675H65.7296V54.9954H64.9302V54.6445H65.7903V54.3724H64.6089V55.9719H65.8206V55.6998H64.9302V55.2675Z" fill="#AFB1B8"/>
<path d="M69.0233 55.2676C69.3015 55.2244 69.4432 55.0769 69.4432 54.8226C69.4513 54.7546 69.441 54.6856 69.4134 54.623C69.3858 54.5603 69.3419 54.5063 69.2863 54.4666C69.1415 54.3938 68.9799 54.3614 68.8183 54.3725H68.1404V55.972H68.4617V55.3032H68.5249C68.5934 55.299 68.6619 55.3112 68.7247 55.3388C68.7717 55.3678 68.8108 55.4079 68.8386 55.4558L69.1877 55.9644H69.5722L69.3774 55.6516C69.2913 55.4972 69.1699 55.3656 69.0233 55.2676V55.2676ZM68.6994 55.0464H68.4617V54.6446H68.7146C68.8248 54.6357 68.9357 54.6486 69.041 54.6827C69.0644 54.7034 69.0828 54.7291 69.095 54.7579C69.1072 54.7867 69.1127 54.8179 69.1113 54.8492C69.1098 54.8804 69.1014 54.911 69.0866 54.9385C69.0718 54.966 69.051 54.9899 69.0258 55.0082C68.9202 55.0406 68.8096 55.0535 68.6994 55.0464V55.0464Z" fill="#AFB1B8"/>
<path d="M72.1096 55.2675H72.9064V54.9954H72.1096V54.6445H72.9697V54.3724H71.7858V55.9719H73V55.6998H72.1096V55.2675Z" fill="#AFB1B8"/>
</svg>
